<?xml version="1.0" encoding="iso-8859-1"?>
<!-- Generator: Adobe Illustrator 16.0.0, SVG Export Plug-In . SVG Version: 6.00 Build 0)  -->
<!DOCTYPE svg PUBLIC "-//W3C//DTD SVG 1.1//EN" "http://www.w3.org/Graphics/SVG/1.1/DTD/svg11.dtd">
<svg version="1.1" id="Capa_1" xmlns="http://www.w3.org/2000/svg" xmlns:xlink="http://www.w3.org/1999/xlink" x="0px" y="0px"
	 width="611.997px" height="611.997px" viewBox="0 0 611.997 611.997" style="enable-background:new 0 0 611.997 611.997;"
	 xml:space="preserve">
<g>
	<g>
		<path d="M611.857,475.453c-15.407-85.465-78.726-154.206-163.767-179.806c26.842-21.586,42.876-54.349,42.876-89.497
			c0-63.322-51.514-114.836-114.836-114.836c-11.155,0-19.104,1.563-27.609,3.908c-3.436,0.945-5.966,3.859-6.416,7.397
			c-0.451,3.533,1.267,6.991,4.35,8.766c47.667,27.477,55.886,74.712,56.548,100.418c0.746,29.641-11.822,69.664-41.171,87.5
			c-3.038,1.846-4.673,5.335-4.147,8.854c0.526,3.516,3.109,6.372,6.554,7.256c76.664,19.536,136.612,80.051,164.456,164.959
			c1.191,3.625,4.574,6.69,8.39,6.69h66.078c2.619,0,5.097-1.767,6.774-3.776C611.619,481.282,612.321,478.027,611.857,475.453z
			 M543.417,469.403c-28.466-83.906-85.297-141.116-158.074-165.56c19.903-19.166,36.331-51.986,35.315-92.182
			c-1.086-42.479-17.505-78.213-46.757-102.502c0.724-0.018,1.47-0.102,2.234-0.102c53.58,0,97.172,43.552,97.172,97.132
			c0,35.594-19.44,68.282-50.732,85.35c-3.241,1.767-5.043,5.357-4.514,9.009c0.53,3.652,3.272,7.198,6.885,7.975
			c84.087,18.124,148.726,81.394,167.384,160.883h-48.913V469.403z"/>
		<path d="M342.847,314.398c30.935-24.046,49.482-61.208,49.482-101.12c0.005-70.626-57.449-128.089-128.071-128.089
			c-70.623,0-128.076,57.462-128.076,128.089c0,39.922,18.534,77.083,49.442,101.12C89.35,342.612,17.526,420.04,0.14,516.421
			c-0.463,2.579,0.234,5.22,1.917,7.225c1.678,2.01,4.155,3.162,6.774,3.162h510.814c2.618,0,5.096-1.152,6.774-3.162
			c1.678-2.005,2.38-4.649,1.921-7.225C510.968,420.04,439.14,342.617,342.847,314.398z M19.642,509.147
			c20.681-92.737,93.966-161.894,189.438-182.499c3.608-0.781,6.35-3.714,6.88-7.366c0.525-3.656-1.272-7.247-4.514-9.018
			c-35.527-19.378-57.599-56.539-57.599-96.991c0-60.885,49.527-110.42,110.412-110.42c60.884,0,110.411,49.535,110.411,110.424
			c0,40.438-22.089,77.6-57.643,96.991c-3.242,1.766-5.044,5.36-4.514,9.013c0.525,3.656,3.268,6.589,6.88,7.366
			c95.489,20.61,168.783,89.762,189.442,182.499H19.642z"/>
	</g>
</g>
<g>
</g>
<g>
</g>
<g>
</g>
<g>
</g>
<g>
</g>
<g>
</g>
<g>
</g>
<g>
</g>
<g>
</g>
<g>
</g>
<g>
</g>
<g>
</g>
<g>
</g>
<g>
</g>
<g>
</g>
</svg>
