<?xml version="1.0" encoding="iso-8859-1"?>
<!-- Generator: Adobe Illustrator 16.0.0, SVG Export Plug-In . SVG Version: 6.00 Build 0)  -->
<!DOCTYPE svg PUBLIC "-//W3C//DTD SVG 1.1//EN" "http://www.w3.org/Graphics/SVG/1.1/DTD/svg11.dtd">
<svg version="1.1" id="Capa_1" xmlns="http://www.w3.org/2000/svg" xmlns:xlink="http://www.w3.org/1999/xlink" x="0px" y="0px"
	 width="611.996px" height="611.996px" viewBox="0 0 611.996 611.996" style="enable-background:new 0 0 611.996 611.996;"
	 xml:space="preserve">
<g>
	<g>
		<path d="M334.665,604.831c-95.902,0-174.654-22.834-234.068-67.865C33.852,486.548,0,413.46,0,319.741
			C0,228.28,32.85,152.017,97.642,93.069c62.822-57.004,141.392-85.904,233.52-85.904c71.072,0,135.085,21.67,190.263,64.409
			c60.098,46.569,90.572,105.652,90.572,175.609c0,58.241-19.617,110.529-58.312,155.408c-40.97,47.406-91.034,71.443-148.81,71.443
			c-28.517,0-50.052-9.113-64.16-27.113c-26.142,17.996-53.73,27.113-82.117,27.113c-36.929,0-67.276-16.092-90.193-47.838
			c-20.136-28.207-30.33-61.248-30.33-98.238c0-46.971,15.455-91.675,45.933-132.862c33.538-45.476,74.089-68.541,120.51-68.541
			c18.415,0,32.44,2.371,42.887,7.244c7.305,3.443,14.518,8.882,21.565,16.244c1.952-5.008,4.393-8.887,7.353-11.715
			c6.049-5.766,16.152-8.569,30.905-8.569c40.943,0,47.054,24.167,47.054,38.572c0,2.519-0.223,5.23-0.672,8.29l-27.253,164.6
			c-6.742,40.682-7.487,48.57-7.496,50.066c0,3.158,0,4.74,5.923,4.74c4.895,0,14.439-2.613,32.126-15.07
			c19.608-13.781,34.823-33.734,45.231-59.311c9.471-23.151,14.27-48.595,14.27-75.652c0-51.734-18.2-91.998-55.644-123.095
			c-34.924-29.114-79.419-43.868-132.261-43.868c-67.464,0-124.145,22.886-168.466,68.018
			c-44.36,45.153-66.85,102.274-66.85,169.765c0,69.197,23.409,122.984,69.574,159.871c42.712,34.047,100.74,51.314,172.471,51.314
			c66.379,0,122.589-19.146,167.08-56.902c6.908-7.854,17.481-19.203,31.441-33.76c10.382-10.365,23.091-15.547,37.9-15.547
			c8.987,0,17.12,3.643,23.519,10.529c6.302,6.838,9.483,14.783,9.483,23.631c0,10.705-5.391,23.637-16.483,39.518
			c-8.338,12.184-17.22,22.713-26.355,31.229c-28.02,25.576-63.951,45.498-106.872,59.287
			C416.032,598.489,375.561,604.831,334.665,604.831z M331.161,24.599c-87.665,0-162.29,27.375-221.8,81.376
			C48.37,161.47,17.434,233.397,17.434,319.741c0,87.963,31.516,156.367,93.68,203.32c56.328,42.691,131.537,64.334,223.552,64.334
			c39.082,0,77.759-6.062,114.967-18.012c40.516-13.016,74.289-31.691,100.374-55.496c8.129-7.584,16.174-17.143,23.841-28.33
			c11.074-15.865,13.389-24.848,13.389-29.607c0-4.393-1.582-8.254-4.847-11.793c-3.116-3.361-6.533-4.934-10.717-4.934
			c-10.168,0-18.497,3.373-25.453,10.32c-13.938,14.531-24.478,25.859-31.202,33.525c-0.274,0.314-0.575,0.615-0.897,0.885
			c-47.812,40.791-107.989,61.475-178.87,61.475c-75.775,0-137.46-18.549-183.345-55.125
			c-50.519-40.363-76.133-98.73-76.133-173.496c0-72.222,24.172-133.449,71.844-181.98c47.716-48.596,108.581-73.239,180.904-73.239
			c57.03,0,105.282,16.118,143.41,47.903c41.086,34.122,61.924,80.047,61.924,136.493c0,29.328-5.234,57.004-15.563,82.243
			c-11.681,28.709-28.958,51.25-51.343,66.98c-17.425,12.273-31.219,18.248-42.154,18.248c-14.622,0-23.356-8.289-23.356-22.176
			c0-1.883,0-6.279,7.731-52.92l27.228-164.447c0.296-2.026,0.457-3.958,0.457-5.587c0-10.452-3.521-21.138-29.619-21.138
			c-13.864,0-17.944,2.863-18.868,3.739c-1.272,1.216-4.463,5.544-6.438,19.212c-0.505,3.513-3.09,6.368-6.533,7.218
			c-3.465,0.837-7.061-0.466-9.148-3.343c-8.839-12.178-17.669-20.402-26.242-24.442c-7.94-3.709-19.892-5.592-35.486-5.592
			c-41.152,0-75.989,20.105-106.494,61.467c-28.216,38.132-42.521,79.345-42.521,122.501c0,33.291,9.105,62.918,27.057,88.07
			c19.704,27.289,44.582,40.572,76.033,40.572c27.183,0,53.757-9.73,78.979-28.93c1.979-1.504,4.52-2.088,6.952-1.617
			c2.444,0.475,4.567,1.979,5.831,4.119c10.504,17.781,28.339,26.424,54.516,26.424c53.22,0,97.58-21.391,135.607-65.398
			c35.879-41.617,54.075-90.075,54.075-144.019c0-64.287-28.199-118.732-83.812-161.828
			C458.701,45.04,398.281,24.599,331.161,24.599z M274.981,418.442c-24.673,0-54.088-11.322-54.088-65.264
			c0-30.473,9.053-65.048,26.905-102.762c21.731-46.457,47.72-70.027,77.223-70.027c9.858,0,23.396,3.818,31.89,22.006
			c4.786,9.597,7.257,21.26,7.257,34.462c0,26.294-7.971,60.935-23.692,102.963C320.979,392.714,299.549,418.442,274.981,418.442z
			 M325.016,197.824c-22.141,0-42.817,20.193-61.449,60.02c-16.758,35.399-25.244,67.464-25.244,95.341
			c0,22.266,4.167,47.828,36.654,47.828c15.708,0,33.163-23.883,49.15-67.254c15.001-40.106,22.603-72.694,22.603-96.896
			c0-10.482-1.861-19.526-5.526-26.887C336.165,199.184,329.91,197.824,325.016,197.824z"/>
	</g>
</g>
<g>
</g>
<g>
</g>
<g>
</g>
<g>
</g>
<g>
</g>
<g>
</g>
<g>
</g>
<g>
</g>
<g>
</g>
<g>
</g>
<g>
</g>
<g>
</g>
<g>
</g>
<g>
</g>
<g>
</g>
</svg>
